<svg xmlns="http://www.w3.org/2000/svg" viewBox="0 0 326 326" width="100%" height="100%">
  <g transform="translate(-307, -87)">
    <!-- Main bodies — drawn first -->
    <path d="M 511.0,132.8 L 514.5,130.6 L 517.9,128.5 L 521.3,126.4 L 524.7,124.4 L 528.1,122.5 L 531.4,120.7 L 534.7,118.9 L 538.0,117.3 L 541.2,115.7 L 544.3,114.1 L 547.5,112.7 L 550.5,111.4 L 553.6,110.1 L 556.6,108.9 L 559.5,107.8 L 562.4,106.8 L 565.2,105.8 L 567.9,105.0 L 570.6,104.2 L 573.3,103.6 L 575.9,103.0 L 578.4,102.5 L 580.8,102.1 L 583.2,101.7 L 585.6,101.5 L 587.8,101.4 L 590.0,101.3 L 592.1,101.3 L 594.1,101.5 L 596.1,101.7 L 598.0,102.0 L 599.8,102.3 L 601.5,102.8 L 603.2,103.4 L 604.8,104.0 L 606.3,104.8 L 607.7,105.6 L 609.0,106.5 L 610.3,107.5 L 611.4,108.6 L 612.5,109.7 L 613.5,111.0 L 614.4,112.3 L 615.2,113.7 L 616.0,115.2 L 616.6,116.8 L 617.2,118.5 L 617.7,120.2 L 618.0,122.0 L 618.3,123.9 L 618.5,125.9 L 618.7,127.9 L 618.7,130.0 L 618.6,132.2 L 618.5,134.4 L 618.3,136.8 L 617.9,139.2 L 617.5,141.6 L 617.0,144.1 L 616.4,146.7 L 615.8,149.4 L 615.0,152.1 L 614.2,154.8 L 613.2,157.6 L 612.2,160.5 L 611.1,163.4 L 609.9,166.4 L 608.6,169.5 L 607.3,172.5 L 605.9,175.7 L 604.3,178.8 L 602.7,182.0 L 601.1,185.3 L 599.3,188.6 L 597.5,191.9 L 595.6,195.3 L 593.6,198.7 L 591.5,202.1 L 589.4,205.5 L 587.2,209.0"   fill="none" stroke="#0F67FF" stroke-width="16" stroke-linecap="round" stroke-linejoin="round"/>
    <path d="M 429.0,367.2 L 425.5,369.4 L 422.1,371.5 L 418.7,373.6 L 415.3,375.6 L 411.9,377.5 L 408.6,379.3 L 405.3,381.1 L 402.0,382.7 L 398.8,384.3 L 395.7,385.9 L 392.5,387.3 L 389.5,388.6 L 386.4,389.9 L 383.4,391.1 L 380.5,392.2 L 377.6,393.2 L 374.8,394.2 L 372.1,395.0 L 369.4,395.8 L 366.7,396.4 L 364.1,397.0 L 361.6,397.5 L 359.2,397.9 L 356.8,398.3 L 354.4,398.5 L 352.2,398.6 L 350.0,398.7 L 347.9,398.7 L 345.9,398.5 L 343.9,398.3 L 342.0,398.0 L 340.2,397.7 L 338.5,397.2 L 336.8,396.6 L 335.2,396.0 L 333.7,395.2 L 332.3,394.4 L 331.0,393.5 L 329.7,392.5 L 328.6,391.4 L 327.5,390.3 L 326.5,389.0 L 325.6,387.7 L 324.8,386.3 L 324.0,384.8 L 323.4,383.2 L 322.8,381.5 L 322.3,379.8 L 322.0,378.0 L 321.7,376.1 L 321.5,374.1 L 321.3,372.1 L 321.3,370.0 L 321.4,367.8 L 321.5,365.6 L 321.7,363.2 L 322.1,360.8 L 322.5,358.4 L 323.0,355.9 L 323.6,353.3 L 324.2,350.6 L 325.0,347.9 L 325.8,345.2 L 326.8,342.4 L 327.8,339.5 L 328.9,336.6 L 330.1,333.6 L 331.4,330.5 L 332.7,327.5 L 334.1,324.3 L 335.7,321.2 L 337.3,318.0 L 338.9,314.7 L 340.7,311.4 L 342.5,308.1 L 344.4,304.7 L 346.4,301.3 L 348.5,297.9 L 350.6,294.5 L 352.8,291.0"   fill="none" stroke="#0F67FF" stroke-width="16" stroke-linecap="round" stroke-linejoin="round"/>
    <path d="M 352.8,209.0 L 350.6,205.5 L 348.5,202.1 L 346.4,198.7 L 344.4,195.3 L 342.5,191.9 L 340.7,188.6 L 338.9,185.3 L 337.3,182.0 L 335.7,178.8 L 334.1,175.7 L 332.7,172.5 L 331.4,169.5 L 330.1,166.4 L 328.9,163.4 L 327.8,160.5 L 326.8,157.6 L 325.8,154.8 L 325.0,152.1 L 324.2,149.4 L 323.6,146.7 L 323.0,144.1 L 322.5,141.6 L 322.1,139.2 L 321.7,136.8 L 321.5,134.4 L 321.4,132.2 L 321.3,130.0 L 321.3,127.9 L 321.5,125.9 L 321.7,123.9 L 322.0,122.0 L 322.3,120.2 L 322.8,118.5 L 323.4,116.8 L 324.0,115.2 L 324.8,113.7 L 325.6,112.3 L 326.5,111.0 L 327.5,109.7 L 328.6,108.6 L 329.7,107.5 L 331.0,106.5 L 332.3,105.6 L 333.7,104.8 L 335.2,104.0 L 336.8,103.4 L 338.5,102.8 L 340.2,102.3 L 342.0,102.0 L 343.9,101.7 L 345.9,101.5 L 347.9,101.3 L 350.0,101.3 L 352.2,101.4 L 354.4,101.5 L 356.8,101.7 L 359.2,102.1 L 361.6,102.5 L 364.1,103.0 L 366.7,103.6 L 369.4,104.2 L 372.1,105.0 L 374.8,105.8 L 377.6,106.8 L 380.5,107.8 L 383.4,108.9 L 386.4,110.1 L 389.5,111.4 L 392.5,112.7 L 395.7,114.1 L 398.8,115.7 L 402.0,117.3 L 405.3,118.9 L 408.6,120.7 L 411.9,122.5 L 415.3,124.4 L 418.7,126.4 L 422.1,128.5 L 425.5,130.6 L 429.0,132.8"   fill="none" stroke="#0F67FF" stroke-width="16" stroke-linecap="round" stroke-linejoin="round"/>
    <path d="M 587.2,291.0 L 589.4,294.5 L 591.5,297.9 L 593.6,301.3 L 595.6,304.7 L 597.5,308.1 L 599.3,311.4 L 601.1,314.7 L 602.7,318.0 L 604.3,321.2 L 605.9,324.3 L 607.3,327.5 L 608.6,330.5 L 609.9,333.6 L 611.1,336.6 L 612.2,339.5 L 613.2,342.4 L 614.2,345.2 L 615.0,347.9 L 615.8,350.6 L 616.4,353.3 L 617.0,355.9 L 617.5,358.4 L 617.9,360.8 L 618.3,363.2 L 618.5,365.6 L 618.6,367.8 L 618.7,370.0 L 618.7,372.1 L 618.5,374.1 L 618.3,376.1 L 618.0,378.0 L 617.7,379.8 L 617.2,381.5 L 616.6,383.2 L 616.0,384.8 L 615.2,386.3 L 614.4,387.7 L 613.5,389.0 L 612.5,390.3 L 611.4,391.4 L 610.3,392.5 L 609.0,393.5 L 607.7,394.4 L 606.3,395.2 L 604.8,396.0 L 603.2,396.6 L 601.5,397.2 L 599.8,397.7 L 598.0,398.0 L 596.1,398.3 L 594.1,398.5 L 592.1,398.7 L 590.0,398.7 L 587.8,398.6 L 585.6,398.5 L 583.2,398.3 L 580.8,397.9 L 578.4,397.5 L 575.9,397.0 L 573.3,396.4 L 570.6,395.8 L 567.9,395.0 L 565.2,394.2 L 562.4,393.2 L 559.5,392.2 L 556.6,391.1 L 553.6,389.9 L 550.5,388.6 L 547.5,387.3 L 544.3,385.9 L 541.2,384.3 L 538.0,382.7 L 534.7,381.1 L 531.4,379.3 L 528.1,377.5 L 524.7,375.6 L 521.3,373.6 L 517.9,371.5 L 514.5,369.4 L 511.0,367.2"   fill="none" stroke="#0F67FF" stroke-width="16" stroke-linecap="round" stroke-linejoin="round"/>
    <!-- Caps — drawn last to enforce correct weave at all 4 crossings -->
    <path d="M 409.5,121.2 L 411.0,122.0 L 412.4,122.8 L 413.8,123.6 L 415.3,124.4 L 416.7,125.3 L 418.2,126.1 L 419.6,127.0 L 421.1,127.9 L 422.6,128.8 L 424.1,129.7 L 425.5,130.6 L 427.0,131.5 L 428.5,132.5 L 430.0,133.5 L 431.5,134.4 L 433.0,135.4 L 434.5,136.4 L 436.1,137.4 L 437.6,138.4 L 439.1,139.5 L 440.6,140.5 L 442.1,141.6 L 443.7,142.7 L 445.2,143.7 L 446.7,144.8 L 448.3,146.0 L 449.8,147.1 L 451.4,148.2 L 452.9,149.3 L 454.5,150.5 L 456.0,151.7 L 457.6,152.8 L 459.1,154.0 L 460.7,155.2 L 462.2,156.4 L 463.8,157.6 L 465.3,158.9 L 466.9,160.1 L 468.5,161.3 L 470.0,162.6 L 471.6,163.9 L 473.1,165.1 L 474.7,166.4 L 476.2,167.7 L 477.8,169.0 L 479.3,170.3 L 480.9,171.6 L 482.5,173.0 L 484.0,174.3 L 485.6,175.6 L 487.1,177.0 L 488.6,178.4 L 490.2,179.7 L 491.7,181.1 L 493.3,182.5 L 494.8,183.9 L 496.3,185.3 L 497.9,186.7 L 499.4,188.1 L 500.9,189.5 L 502.4,190.9 L 504.0,192.4 L 505.5,193.8 L 507.0,195.2 L 508.5,196.7 L 510.0,198.2 L 511.5,199.6 L 513.0,201.1 L 514.5,202.6 L 516.0,204.0 L 517.4,205.5 L 518.9,207.0 L 520.4,208.5 L 521.8,210.0 L 523.3,211.5 L 524.8,213.0 L 526.2,214.5 L 527.6,216.0 L 529.1,217.6 L 530.5,219.1"    fill="none" stroke="#0F67FF" stroke-width="16" stroke-linecap="round" stroke-linejoin="round"/>
    <path d="M 530.5,378.8 L 529.0,378.0 L 527.6,377.2 L 526.2,376.4 L 524.7,375.6 L 523.3,374.7 L 521.8,373.9 L 520.4,373.0 L 518.9,372.1 L 517.4,371.2 L 515.9,370.3 L 514.5,369.4 L 513.0,368.5 L 511.5,367.5 L 510.0,366.5 L 508.5,365.6 L 507.0,364.6 L 505.5,363.6 L 503.9,362.6 L 502.4,361.6 L 500.9,360.5 L 499.4,359.5 L 497.9,358.4 L 496.3,357.3 L 494.8,356.3 L 493.3,355.2 L 491.7,354.0 L 490.2,352.9 L 488.6,351.8 L 487.1,350.7 L 485.5,349.5 L 484.0,348.3 L 482.4,347.2 L 480.9,346.0 L 479.3,344.8 L 477.8,343.6 L 476.2,342.4 L 474.7,341.1 L 473.1,339.9 L 471.5,338.7 L 470.0,337.4 L 468.4,336.1 L 466.9,334.9 L 465.3,333.6 L 463.8,332.3 L 462.2,331.0 L 460.7,329.7 L 459.1,328.4 L 457.5,327.0 L 456.0,325.7 L 454.4,324.4 L 452.9,323.0 L 451.4,321.6 L 449.8,320.3 L 448.3,318.9 L 446.7,317.5 L 445.2,316.1 L 443.7,314.7 L 442.1,313.3 L 440.6,311.9 L 439.1,310.5 L 437.6,309.1 L 436.0,307.6 L 434.5,306.2 L 433.0,304.8 L 431.5,303.3 L 430.0,301.8 L 428.5,300.4 L 427.0,298.9 L 425.5,297.4 L 424.0,296.0 L 422.6,294.5 L 421.1,293.0 L 419.6,291.5 L 418.2,290.0 L 416.7,288.5 L 415.2,287.0 L 413.8,285.5 L 412.4,284.0 L 410.9,282.4 L 409.5,280.9" fill="none" stroke="#0F67FF" stroke-width="16" stroke-linecap="round" stroke-linejoin="round"/>
    <path d="M 598.8,189.5 L 598.0,191.0 L 597.2,192.4 L 596.4,193.8 L 595.6,195.3 L 594.7,196.7 L 593.9,198.2 L 593.0,199.6 L 592.1,201.1 L 591.2,202.6 L 590.3,204.1 L 589.4,205.5 L 588.5,207.0 L 587.5,208.5 L 586.5,210.0 L 585.6,211.5 L 584.6,213.0 L 583.6,214.5 L 582.6,216.1 L 581.6,217.6 L 580.5,219.1 L 579.5,220.6 L 578.4,222.1 L 577.3,223.7 L 576.3,225.2 L 575.2,226.7 L 574.0,228.3 L 572.9,229.8 L 571.8,231.4 L 570.7,232.9 L 569.5,234.5 L 568.3,236.0 L 567.2,237.6 L 566.0,239.1 L 564.8,240.7 L 563.6,242.2 L 562.4,243.8 L 561.1,245.3 L 559.9,246.9 L 558.7,248.5 L 557.4,250.0 L 556.1,251.6 L 554.9,253.1 L 553.6,254.7 L 552.3,256.2 L 551.0,257.8 L 549.7,259.3 L 548.4,260.9 L 547.0,262.5 L 545.7,264.0 L 544.4,265.6 L 543.0,267.1 L 541.6,268.6 L 540.3,270.2 L 538.9,271.7 L 537.5,273.3 L 536.1,274.8 L 534.7,276.3 L 533.3,277.9 L 531.9,279.4 L 530.5,280.9 L 529.1,282.4 L 527.6,284.0 L 526.2,285.5 L 524.8,287.0 L 523.3,288.5 L 521.8,290.0 L 520.4,291.5 L 518.9,293.0 L 517.4,294.5 L 516.0,296.0 L 514.5,297.4 L 513.0,298.9 L 511.5,300.4 L 510.0,301.8 L 508.5,303.3 L 507.0,304.8 L 505.5,306.2 L 504.0,307.6 L 502.4,309.1 L 500.9,310.5"  fill="none" stroke="#0F67FF" stroke-width="16" stroke-linecap="round" stroke-linejoin="round"/>
    <path d="M 341.2,310.5 L 342.0,309.0 L 342.8,307.6 L 343.6,306.2 L 344.4,304.7 L 345.3,303.3 L 346.1,301.8 L 347.0,300.4 L 347.9,298.9 L 348.8,297.4 L 349.7,295.9 L 350.6,294.5 L 351.5,293.0 L 352.5,291.5 L 353.5,290.0 L 354.4,288.5 L 355.4,287.0 L 356.4,285.5 L 357.4,283.9 L 358.4,282.4 L 359.5,280.9 L 360.5,279.4 L 361.6,277.9 L 362.7,276.3 L 363.7,274.8 L 364.8,273.3 L 366.0,271.7 L 367.1,270.2 L 368.2,268.6 L 369.3,267.1 L 370.5,265.5 L 371.7,264.0 L 372.8,262.4 L 374.0,260.9 L 375.2,259.3 L 376.4,257.8 L 377.6,256.2 L 378.9,254.7 L 380.1,253.1 L 381.3,251.5 L 382.6,250.0 L 383.9,248.4 L 385.1,246.9 L 386.4,245.3 L 387.7,243.8 L 389.0,242.2 L 390.3,240.7 L 391.6,239.1 L 393.0,237.5 L 394.3,236.0 L 395.6,234.4 L 397.0,232.9 L 398.4,231.4 L 399.7,229.8 L 401.1,228.3 L 402.5,226.7 L 403.9,225.2 L 405.3,223.7 L 406.7,222.1 L 408.1,220.6 L 409.5,219.1 L 410.9,217.6 L 412.4,216.0 L 413.8,214.5 L 415.2,213.0 L 416.7,211.5 L 418.2,210.0 L 419.6,208.5 L 421.1,207.0 L 422.6,205.5 L 424.0,204.0 L 425.5,202.6 L 427.0,201.1 L 428.5,199.6 L 430.0,198.2 L 431.5,196.7 L 433.0,195.2 L 434.5,193.8 L 436.0,192.4 L 437.6,190.9 L 439.1,189.5"   fill="none" stroke="#0F67FF" stroke-width="16" stroke-linecap="round" stroke-linejoin="round"/>
    <!-- Corner dots on top -->
    <circle cx="329" cy="109" r="22" fill="#0F67FF" />
    <circle cx="611" cy="109" r="22" fill="#0F67FF" />
    <circle cx="329" cy="391" r="22" fill="#0F67FF" />
    <circle cx="611" cy="391" r="22" fill="#0F67FF" />
  </g>
</svg>